HIERARCHY
ROOT Hips
{
	OFFSET 0.0000 0.0000 0.0000
	CHANNELS 6 Xposition Yposition Zposition Zrotation Xrotation Yrotation
	JOINT Spine1
	{
		OFFSET -0.0137 5.0038 -0.0537
		CHANNELS 3 Zrotation Xrotation Yrotation
		JOINT Spine2
		{
			OFFSET -0.0000 7.1253 -0.0298
			CHANNELS 3 Zrotation Xrotation Yrotation
			JOINT Chest
			{
				OFFSET -0.0000 7.5501 -0.8160
				CHANNELS 3 Zrotation Xrotation Yrotation
				JOINT Neck1
				{
					OFFSET -0.1817 26.3113 -0.5533
					CHANNELS 3 Zrotation Xrotation Yrotation
					JOINT Neck2
					{
						OFFSET -0.0000 7.7094 2.3026
						CHANNELS 3 Zrotation Xrotation Yrotation
						JOINT Head
						{
							OFFSET -0.0000 6.1289 1.9537
							CHANNELS 3 Zrotation Xrotation Yrotation
							JOINT Jaw
							{
								OFFSET 0.0026 0.4756 3.0949
								CHANNELS 3 Zrotation Xrotation Yrotation
								End Site
								{
									OFFSET 0.0 1.0 0.0
								}
							}
							JOINT LeftEye
							{
								OFFSET 3.2064 5.3802 7.5869
								CHANNELS 3 Zrotation Xrotation Yrotation
								End Site
								{
									OFFSET 0.0 1.0 0.0
								}
							}
							JOINT RightEye
							{
								OFFSET -3.2224 5.3619 7.5582
								CHANNELS 3 Zrotation Xrotation Yrotation
								End Site
								{
									OFFSET 0.0 1.0 0.0
								}
							}
						}
					}
				}
				JOINT LeftShoulder
				{
					OFFSET 1.6217 23.2372 5.1134
					CHANNELS 3 Zrotation Xrotation Yrotation
					JOINT LeftArm
					{
						OFFSET 14.9198 0.0000 -5.5023
						CHANNELS 3 Zrotation Xrotation Yrotation
						JOINT LeftForeArm
						{
							OFFSET 28.7393 0.0000 -0.0026
							CHANNELS 3 Zrotation Xrotation Yrotation
							JOINT LeftHand
							{
								OFFSET 27.0940 -0.0000 0.0026
								CHANNELS 3 Zrotation Xrotation Yrotation
								JOINT LeftHandThumbEnd
								{
									OFFSET 12.2686 -3.2202 4.8331
									CHANNELS 3 Zrotation Xrotation Yrotation
									End Site
									{
										OFFSET 0.0 1.0 0.0
									}
								}
								JOINT LeftHandMiddleEnd
								{
									OFFSET 19.0120 -0.3129 -0.0340
									CHANNELS 3 Zrotation Xrotation Yrotation
									End Site
									{
										OFFSET 0.0 1.0 0.0
									}
								}
							}
						}
					}
				}
				JOINT RightShoulder
				{
					OFFSET -1.3801 23.1803 5.2142
					CHANNELS 3 Zrotation Xrotation Yrotation
					JOINT RightArm
					{
						OFFSET -15.0372 0.0000 -5.5456
						CHANNELS 3 Zrotation Xrotation Yrotation
						JOINT RightForeArm
						{
							OFFSET -28.7366 0.0000 -0.0026
							CHANNELS 3 Zrotation Xrotation Yrotation
							JOINT RightHand
							{
								OFFSET -27.1336 -0.0000 0.0026
								CHANNELS 3 Zrotation Xrotation Yrotation
								JOINT RightHandThumbEnd
								{
									OFFSET -12.2642 -3.2115 4.8040
									CHANNELS 3 Zrotation Xrotation Yrotation
									End Site
									{
										OFFSET 0.0 1.0 0.0
									}
								}
								JOINT RightHandMiddleEnd
								{
									OFFSET -19.0006 -0.3066 -0.0316
									CHANNELS 3 Zrotation Xrotation Yrotation
									End Site
									{
										OFFSET 0.0 1.0 0.0
									}
								}
							}
						}
					}
				}
			}
		}
	}
	JOINT LeftLeg
	{
		OFFSET 10.0432 -8.4345 2.5957
		CHANNELS 3 Zrotation Xrotation Yrotation
		JOINT LeftShin
		{
			OFFSET -0.0000 -43.2218 -0.8029
			CHANNELS 3 Zrotation Xrotation Yrotation
			JOINT LeftFoot
			{
				OFFSET 0.0000 -42.1551 -3.4815
				CHANNELS 3 Zrotation Xrotation Yrotation
				JOINT LeftToeBase
				{
					OFFSET 0.0000 -5.0595 13.2315
					CHANNELS 3 Zrotation Xrotation Yrotation
					End Site
					{
						OFFSET 0.0 1.0 0.0
					}
				}
			}
		}
	}
	JOINT RightLeg
	{
		OFFSET -10.0473 -8.2953 2.6203
		CHANNELS 3 Zrotation Xrotation Yrotation
		JOINT RightShin
		{
			OFFSET 0.0000 -43.3622 -0.8056
			CHANNELS 3 Zrotation Xrotation Yrotation
			JOINT RightFoot
			{
				OFFSET 0.0000 -42.1174 -3.4784
				CHANNELS 3 Zrotation Xrotation Yrotation
				JOINT RightToeBase
				{
					OFFSET -0.0000 -5.0796 13.2842
					CHANNELS 3 Zrotation Xrotation Yrotation
					End Site
					{
						OFFSET 0.0 1.0 0.0
					}
				}
			}
		}
	}
}
MOTION
Frames: 10
Frame Time: 0.033333
0.4820 93.4313 -1.0775 -1.0728 -4.2902 0.1493 0.1787 3.8479 0.0457 -0.4205 -3.7516 0.4168 1.2370 13.8257 -1.3266 2.6597 23.7845 2.0894 -0.6923 -3.6235 -0.4306 0.3551 -11.3493 -1.5820 0.0386 0.1111 0.0196 0.7074 -10.4098 -3.8305 -0.6284 -10.4584 3.8605 0.3054 11.8205 -6.1127 -17.6485 -3.7466 -45.8238 0.2716 1.6483 -112.2041 -9.8241 14.2026 -12.7833 -16.1585 10.6099 15.1415 -60.0063 1.8105 2.1392 -0.7823 12.4971 15.7180 56.3745 -13.7754 25.5120 0.5197 0.1063 73.4831 -81.2965 -83.7259 91.5431 14.4826 7.5943 -15.5873 48.8709 -3.3894 -4.7000 15.8637 -19.7009 14.7025 -0.3440 36.8839 -0.5393 -12.2981 -15.4079 -14.3536 1.6550 -0.6384 -1.7722 -13.6946 -17.0547 -20.5176 0.4171 36.5233 0.5594 11.6414 -16.3261 10.9847 -1.3984 -0.2477 1.0643
0.7811 93.3720 -1.1202 -1.1572 -4.2390 -0.1684 0.1677 3.9646 0.0510 -0.3955 -3.7443 0.4443 1.1809 13.8085 -1.2719 2.6884 23.3769 2.0555 -0.7588 -3.6259 -0.3178 0.5181 -11.1745 -1.5933 0.0267 0.1067 0.0418 0.6992 -10.3990 -3.8098 -0.6438 -10.4392 3.8869 0.4415 11.5955 -6.2059 -18.0411 -4.6424 -47.2812 0.0320 1.3977 -112.1668 -9.1921 14.1388 -12.6419 -16.0992 10.6505 15.2494 -60.0004 1.7734 2.2033 -1.0115 12.5637 16.0428 56.9881 -14.5058 27.0969 0.8846 -0.0104 72.4159 -69.1631 -83.0113 79.7972 14.5462 7.6511 -15.7516 48.9789 -3.4057 -4.7446 15.8285 -20.0312 14.9891 -0.3832 37.5570 -0.5676 -12.2031 -15.7455 -14.3805 1.6521 -0.5708 -1.7821 -13.7179 -17.2675 -20.3492 0.4164 36.5826 0.5823 11.7517 -16.3034 11.0804 -1.4097 -0.1696 1.0587
1.1010 93.2763 -1.1558 -1.1911 -4.1520 -0.4488 0.1342 4.0376 0.0836 -0.3916 -3.7214 0.4463 1.1263 13.8170 -1.2036 2.7598 23.0698 2.0354 -0.7910 -3.6538 -0.2927 0.6213 -11.0863 -1.5512 0.0259 0.1081 0.0452 0.7010 -10.4037 -3.8116 -0.6468 -10.4390 3.8938 0.4585 11.4402 -6.4250 -18.2013 -5.4633 -48.6598 -0.0763 1.1578 -111.6537 -8.7553 14.2417 -12.7722 -16.0725 10.6262 15.2882 -59.9608 1.7509 2.1631 -1.2930 12.6568 16.3278 57.3876 -14.6819 29.1233 1.0528 0.0023 71.5617 -62.9115 -82.6977 74.1624 14.5889 7.7069 -15.9417 48.9751 -3.4665 -4.7907 15.7095 -20.3927 15.2425 -0.3905 38.2188 -0.5759 -12.0284 -16.0551 -14.3347 1.6566 -0.4837 -1.7665 -13.8096 -17.5480 -20.1534 0.4356 36.7171 0.6076 11.8791 -16.3212 11.1538 -1.4167 -0.0948 1.0646
1.3801 93.1806 -1.2136 -1.2174 -4.0710 -0.6878 0.0884 4.0923 0.1219 -0.3931 -3.7156 0.4512 1.0593 13.8664 -1.1523 2.8157 22.9135 2.0448 -0.7902 -3.6812 -0.3201 0.7489 -11.1885 -1.4957 0.0293 0.1089 0.0374 0.7032 -10.4102 -3.8216 -0.6414 -10.4412 3.8841 0.4570 11.3204 -6.6847 -18.0342 -6.1564 -49.8836 -0.0304 0.9714 -110.6209 -8.5205 14.3613 -12.9746 -16.0365 10.6173 15.2747 -59.9469 1.7393 2.0842 -1.5724 12.7896 16.5096 57.5317 -14.2582 31.4604 1.0202 0.0316 71.1278 -55.7934 -82.7931 67.8146 14.5730 7.7289 -16.0695 48.8879 -3.5376 -4.7878 15.5673 -20.7275 15.4343 -0.3793 38.8271 -0.5604 -11.8137 -16.3025 -14.2521 1.6585 -0.4169 -1.7629 -13.9102 -17.8219 -19.9098 0.4342 36.8545 0.6103 11.9935 -16.3313 11.1531 -1.4204 -0.0800 1.0549
1.6300 93.1033 -1.2422 -1.2635 -4.0102 -0.8876 0.0500 4.1341 0.1782 -0.3976 -3.7191 0.4483 0.9708 13.9311 -1.1651 2.8454 22.8478 2.0546 -0.7940 -3.6961 -0.2971 0.9407 -11.4241 -1.4638 0.0299 0.1086 0.0386 0.7022 -10.4026 -3.8172 -0.6386 -10.4307 3.8804 0.4859 11.2402 -6.9214 -17.4776 -6.7318 -51.0032 0.1146 0.8699 -109.0947 -8.3241 14.4365 -13.1674 -15.9979 10.6043 15.2079 -59.9157 1.7280 1.9834 -1.8369 12.9191 16.5893 57.5644 -13.2461 33.9725 0.9074 0.0706 71.1749 -48.0601 -83.0986 60.9404 14.4769 7.7584 -16.1869 48.8303 -3.5676 -4.8039 15.4492 -21.0057 15.6116 -0.3770 39.3340 -0.5633 -11.5826 -16.5158 -14.2046 1.6559 -0.3415 -1.7664 -13.9728 -18.0305 -19.6916 0.4403 36.9560 0.6377 12.0880 -16.2995 11.0807 -1.4224 -0.0784 1.0457
1.8591 93.0383 -1.2673 -1.3175 -3.9624 -1.0494 -0.0014 4.1634 0.2116 -0.4137 -3.7201 0.4294 0.8851 13.9624 -1.2143 2.8253 22.8487 2.0981 -0.7764 -3.7073 -0.2795 1.1617 -11.5978 -1.4110 0.0301 0.1071 0.0370 0.6993 -10.3911 -3.8149 -0.6349 -10.4165 3.8742 0.5682 11.1558 -7.1415 -16.7038 -7.1856 -51.8331 0.2552 0.8511 -107.2923 -8.1767 14.3982 -13.3929 -15.9294 10.6146 15.1283 -59.8724 1.7169 1.8720 -1.9951 13.0730 16.5750 57.6064 -11.8574 36.2522 0.7951 0.1036 71.6932 -39.7100 -83.4073 53.4398 14.4401 7.7794 -16.2767 48.8542 -3.5813 -4.7846 15.3677 -21.2214 15.7493 -0.3711 39.7243 -0.5601 -11.3655 -16.6878 -14.1845 1.6545 -0.2515 -1.7799 -14.0096 -18.1926 -19.4946 0.4453 37.0379 0.6546 12.1122 -16.2584 11.0110 -1.4246 -0.0657 1.0310
2.0142 92.9895 -1.2874 -1.3826 -3.9379 -1.1660 -0.0601 4.1804 0.2340 -0.4369 -3.7234 0.3601 0.8080 13.9772 -1.2777 2.7593 22.9170 2.1641 -0.7551 -3.7166 -0.2332 1.3623 -11.7542 -1.3369 0.0302 0.1023 0.0321 0.6964 -10.3853 -3.8166 -0.6315 -10.4114 3.8660 0.6555 11.0920 -7.3515 -15.7151 -7.4959 -52.3706 0.3512 0.8485 -105.3972 -8.1265 14.1850 -13.6496 -15.8708 10.6217 15.0555 -59.8610 1.7152 1.7730 -2.0227 13.2936 16.4608 57.6237 -10.2315 38.2219 0.7044 0.0982 72.5647 -31.0246 -83.7084 45.5462 14.4583 7.7922 -16.3450 48.9076 -3.5810 -4.7690 15.3312 -21.3737 15.8214 -0.3789 40.0231 -0.5743 -11.2057 -16.8346 -14.1281 1.6530 -0.1673 -1.7895 -14.0153 -18.2927 -19.3458 0.4423 37.1039 0.6565 12.0583 -16.2248 10.9976 -1.4252 -0.0926 1.0190
2.1325 92.9613 -1.2948 -1.4543 -3.9277 -1.2363 -0.1240 4.1818 0.2373 -0.4675 -3.7246 0.2924 0.7450 13.9805 -1.3545 2.6832 22.9946 2.2182 -0.7281 -3.7191 -0.1802 1.5376 -11.8777 -1.2437 0.0286 0.0996 0.0296 0.6935 -10.3787 -3.8187 -0.6317 -10.4049 3.8640 0.7131 11.0500 -7.6279 -14.6022 -7.5421 -52.5786 0.4632 0.8739 -103.5615 -8.1317 13.8797 -13.9773 -15.8181 10.6400 14.9847 -59.8647 1.7296 1.6795 -1.9489 13.5194 16.2532 57.6418 -8.4563 39.8045 0.6201 0.0866 73.7094 -21.5016 -84.0215 36.7358 14.5206 7.8140 -16.4504 49.0091 -3.5874 -4.7819 15.3316 -21.4483 15.8091 -0.3845 40.1733 -0.5808 -11.1430 -16.9280 -14.0386 1.6494 -0.1026 -1.7935 -13.9866 -18.3175 -19.2907 0.4467 37.0988 0.6675 11.9658 -16.1933 11.0100 -1.4240 -0.1618 1.0081
2.1776 92.9595 -1.3069 -1.5374 -3.9286 -1.2478 -0.1860 4.1731 0.2181 -0.5042 -3.7122 0.2359 0.6877 13.9656 -1.4924 2.6039 23.0723 2.2538 -0.7100 -3.7291 -0.0830 1.6909 -11.9716 -1.1858 0.0236 0.0969 0.0348 0.6859 -10.3818 -3.8129 -0.6338 -10.4092 3.8705 0.7093 11.0562 -7.8841 -13.3445 -7.3579 -52.5141 0.5589 0.9019 -101.8724 -8.1421 13.6725 -14.4604 -15.8347 10.6593 14.9174 -59.9010 1.7627 1.6141 -1.7924 13.7132 15.9653 57.6011 -6.5976 40.9920 0.5857 0.0620 75.1105 -11.3311 -84.0413 27.1059 14.5446 7.8251 -16.5292 49.0602 -3.6001 -4.8046 15.3909 -21.4602 15.6861 -0.3897 40.1932 -0.5868 -11.1430 -16.9591 -13.9260 1.6470 -0.0476 -1.7931 -13.9195 -18.2853 -19.3037 0.4575 37.0591 0.6966 11.8818 -16.1861 10.9854 -1.4223 -0.2150 1.0053
2.1396 92.9816 -1.3363 -1.6232 -3.9438 -1.2220 -0.2392 4.1762 0.1990 -0.5338 -3.7186 0.1313 0.6279 13.9585 -1.6295 2.5040 23.1610 2.2614 -0.6696 -3.7288 0.0354 1.8277 -12.0849 -1.1692 0.0214 0.0929 0.0356 0.6803 -10.3903 -3.8107 -0.6326 -10.4207 3.8713 0.6171 11.1612 -8.1281 -11.9690 -7.0026 -52.1671 0.6509 0.9299 -100.3989 -8.2262 13.4415 -15.0983 -15.8401 10.6622 14.8471 -59.8935 1.7789 1.5711 -1.5977 13.8686 15.6227 57.4641 -4.6767 41.7528 0.6148 0.0121 76.7413 -2.2074 -83.8184 18.4267 14.5743 7.8348 -16.5924 49.1393 -3.6008 -4.8394 15.4886 -21.4267 15.4830 -0.3984 40.1310 -0.6019 -11.1644 -16.9273 -13.7904 1.6463 -0.0093 -1.7857 -13.7967 -18.2076 -19.3621 0.4624 37.0075 0.7074 11.8049 -16.2059 10.9472 -1.4197 -0.2286 1.0088
